<svg width="147" height="18" viewBox="0 0 147 18" fill="none" xmlns="http://www.w3.org/2000/svg">
<path d="M0.257812 11.5703C0.257812 10.7956 0.38151 10.0566 0.628906 9.35352C0.882812 8.65039 1.26367 8.03516 1.77148 7.50781C2.28581 6.97396 2.93034 6.55078 3.70508 6.23828C4.47982 5.91927 5.39128 5.75977 6.43945 5.75977C7.1556 5.75977 7.76107 5.85091 8.25586 6.0332C8.75065 6.20898 9.16081 6.43359 9.48633 6.70703V2.9375H7.78711V2.23438H15.3066V16.2969H17.0156V17H9.48633V16.2188C9.2194 16.5768 8.84505 16.8568 8.36328 17.0586C7.88151 17.2669 7.24023 17.3711 6.43945 17.3711C5.39128 17.3711 4.47982 17.2148 3.70508 16.9023C2.93034 16.5898 2.28581 16.1667 1.77148 15.6328C1.26367 15.099 0.882812 14.4837 0.628906 13.7871C0.38151 13.084 0.257812 12.3451 0.257812 11.5703ZM7.92383 16.248C8.16471 16.248 8.38607 16.1992 8.58789 16.1016C8.78971 15.9974 8.96224 15.8346 9.10547 15.6133C9.25521 15.3854 9.3724 15.0957 9.45703 14.7441C9.54167 14.3926 9.58398 13.9629 9.58398 13.4551V9.19727C9.58398 8.94336 9.54818 8.67643 9.47656 8.39648C9.40495 8.11654 9.29427 7.85938 9.14453 7.625C8.99479 7.39062 8.80599 7.19857 8.57812 7.04883C8.35677 6.89258 8.09635 6.81445 7.79688 6.81445C7.52344 6.81445 7.28906 6.89909 7.09375 7.06836C6.89844 7.23112 6.73893 7.5013 6.61523 7.87891C6.49154 8.25651 6.40039 8.74805 6.3418 9.35352C6.2832 9.95247 6.25391 10.6914 6.25391 11.5703C6.25391 12.4557 6.27995 13.1979 6.33203 13.7969C6.39062 14.3958 6.48503 14.8776 6.61523 15.2422C6.74544 15.6003 6.91797 15.8574 7.13281 16.0137C7.34766 16.1699 7.61133 16.248 7.92383 16.248ZM22.8066 5.14453C22.429 5.14453 22.0645 5.10872 21.7129 5.03711C21.3613 4.95898 21.0521 4.83854 20.7852 4.67578C20.5182 4.50651 20.3034 4.29167 20.1406 4.03125C19.9779 3.77083 19.8965 3.45182 19.8965 3.07422C19.8965 2.69661 19.9779 2.3776 20.1406 2.11719C20.3034 1.85026 20.5182 1.63542 20.7852 1.47266C21.0521 1.30339 21.3613 1.18294 21.7129 1.11133C22.0645 1.0332 22.429 0.994141 22.8066 0.994141C23.1777 0.994141 23.5391 1.0332 23.8906 1.11133C24.2422 1.18294 24.5514 1.30339 24.8184 1.47266C25.0853 1.63542 25.3001 1.84701 25.4629 2.10742C25.6257 2.36784 25.707 2.68685 25.707 3.06445C25.707 3.44206 25.6257 3.76432 25.4629 4.03125C25.3001 4.29167 25.0853 4.50651 24.8184 4.67578C24.5514 4.83854 24.2422 4.95898 23.8906 5.03711C23.5391 5.10872 23.1777 5.14453 22.8066 5.14453ZM18.2949 16.2969H20.0039V6.83398H18.2949V6.13086H25.8145V16.2969H27.5234V17H18.2949V16.2969ZM29.2422 12.7422H29.9648C30.2448 13.237 30.6322 13.7122 31.127 14.168C31.6217 14.6172 32.1784 15.0176 32.7969 15.3691C33.4219 15.7142 34.0827 15.9909 34.7793 16.1992C35.4759 16.4076 36.1693 16.5117 36.8594 16.5117C37.1458 16.5117 37.4225 16.4987 37.6895 16.4727C37.9564 16.4401 38.1908 16.3848 38.3926 16.3066C38.5944 16.222 38.7539 16.1113 38.8711 15.9746C38.9948 15.8379 39.0566 15.6621 39.0566 15.4473C39.0566 15.2259 38.9557 15.0436 38.7539 14.9004C38.5586 14.7507 38.2917 14.627 37.9531 14.5293C37.6146 14.4316 37.224 14.3503 36.7812 14.2852C36.3451 14.2201 35.8893 14.1549 35.4141 14.0898C34.5547 13.9792 33.7507 13.8327 33.002 13.6504C32.2533 13.4681 31.6022 13.2174 31.0488 12.8984C30.4954 12.5794 30.0592 12.1758 29.7402 11.6875C29.4277 11.1992 29.2715 10.5938 29.2715 9.87109C29.2715 9.20703 29.418 8.62109 29.7109 8.11328C30.0104 7.59896 30.4238 7.16927 30.9512 6.82422C31.4785 6.47266 32.1035 6.20898 32.8262 6.0332C33.5488 5.85091 34.3366 5.75977 35.1895 5.75977C35.5931 5.75977 36 5.79883 36.4102 5.87695C36.8268 5.95508 37.2272 6.05924 37.6113 6.18945C38.002 6.31315 38.3698 6.45964 38.7148 6.62891C39.0664 6.79167 39.3822 6.95768 39.6621 7.12695L40.9707 5.87695H41.7812V9.72461H41.0879C40.821 9.27539 40.4824 8.85872 40.0723 8.47461C39.6686 8.09049 39.2096 7.75846 38.6953 7.47852C38.181 7.19857 37.6243 6.98047 37.0254 6.82422C36.4264 6.66146 35.8014 6.58008 35.1504 6.58008C34.8314 6.58008 34.5384 6.59635 34.2715 6.62891C34.0046 6.66146 33.7734 6.71354 33.5781 6.78516C33.3828 6.85677 33.2298 6.95117 33.1191 7.06836C33.015 7.18555 32.9629 7.32552 32.9629 7.48828C32.9629 7.70964 33.0443 7.89193 33.207 8.03516C33.3698 8.17839 33.6107 8.30534 33.9297 8.41602C34.2552 8.52018 34.6556 8.61458 35.1309 8.69922C35.6061 8.78385 36.1595 8.875 36.791 8.97266C37.5918 9.10286 38.3372 9.26237 39.0273 9.45117C39.7174 9.63997 40.3132 9.89714 40.8145 10.2227C41.3223 10.5482 41.7194 10.9616 42.0059 11.4629C42.2988 11.9642 42.4453 12.5957 42.4453 13.3574C42.4453 13.9759 42.3249 14.5358 42.084 15.0371C41.8496 15.5319 41.498 15.9518 41.0293 16.2969C40.5671 16.6419 39.9941 16.9056 39.3105 17.0879C38.627 17.2767 37.8424 17.3711 36.957 17.3711C36.5404 17.3711 36.0911 17.3288 35.6094 17.2441C35.1276 17.166 34.6491 17.0521 34.1738 16.9023C33.7051 16.7461 33.2591 16.5605 32.8359 16.3457C32.4128 16.1243 32.0547 15.877 31.7617 15.6035L30.0527 17.2246H29.2422V12.7422ZM44.1445 11.4629C44.1445 10.61 44.3171 9.83203 44.6621 9.12891C45.0072 8.42578 45.4824 7.82682 46.0879 7.33203C46.6999 6.83073 47.4225 6.44336 48.2559 6.16992C49.0892 5.89648 49.9974 5.75977 50.9805 5.75977C52.2174 5.75977 53.2786 5.86068 54.1641 6.0625C55.0495 6.25781 55.7754 6.51497 56.3418 6.83398C56.9147 7.15299 57.3346 7.51107 57.6016 7.9082C57.8685 8.30534 58.002 8.69922 58.002 9.08984C58.002 9.3763 57.9303 9.64648 57.7871 9.90039C57.6504 10.1543 57.4583 10.3757 57.2109 10.5645C56.9701 10.7533 56.6868 10.903 56.3613 11.0137C56.0358 11.1243 55.6842 11.1797 55.3066 11.1797C54.929 11.1797 54.5742 11.1276 54.2422 11.0234C53.9102 10.9128 53.6204 10.7663 53.373 10.584C53.1322 10.3952 52.9401 10.1771 52.7969 9.92969C52.6536 9.68229 52.582 9.41536 52.582 9.12891C52.582 8.86198 52.6439 8.61133 52.7676 8.37695C52.8978 8.13607 53.0736 7.92448 53.2949 7.74219C53.5228 7.5599 53.7865 7.41016 54.0859 7.29297C54.3919 7.17578 54.7207 7.10742 55.0723 7.08789C54.7012 6.95117 54.3333 6.84701 53.9688 6.77539C53.6107 6.69727 53.2786 6.6582 52.9727 6.6582C52.4714 6.6582 52.0384 6.72656 51.6738 6.86328C51.3092 6.99349 51.0065 7.24089 50.7656 7.60547C50.5312 7.96354 50.3555 8.46159 50.2383 9.09961C50.1211 9.73763 50.0625 10.5612 50.0625 11.5703C50.0625 12.5664 50.1048 13.377 50.1895 14.002C50.2806 14.627 50.4206 15.1185 50.6094 15.4766C50.8047 15.8281 51.0521 16.069 51.3516 16.1992C51.6576 16.3294 52.0254 16.3945 52.4551 16.3945C53.002 16.3945 53.5163 16.3262 53.998 16.1895C54.4798 16.0527 54.9095 15.8607 55.2871 15.6133C55.6712 15.3594 55.9902 15.0566 56.2441 14.7051C56.498 14.347 56.6706 13.9466 56.7617 13.5039H57.6797C57.6146 14.1094 57.429 14.653 57.123 15.1348C56.8171 15.61 56.4102 16.0137 55.9023 16.3457C55.401 16.6777 54.8086 16.9316 54.125 17.1074C53.4479 17.2832 52.7057 17.3711 51.8984 17.3711C50.6289 17.3711 49.5091 17.2409 48.5391 16.9805C47.5755 16.7135 46.7682 16.3294 46.1172 15.8281C45.4661 15.3203 44.9746 14.7018 44.6426 13.9727C44.3105 13.237 44.1445 12.4004 44.1445 11.4629ZM59.6719 11.5703C59.6719 10.7305 59.8249 9.95573 60.1309 9.24609C60.4368 8.53646 60.8958 7.92448 61.5078 7.41016C62.1198 6.88932 62.888 6.48568 63.8125 6.19922C64.737 5.90625 65.8177 5.75977 67.0547 5.75977C68.2917 5.75977 69.3691 5.90625 70.2871 6.19922C71.2116 6.48568 71.9798 6.88932 72.5918 7.41016C73.2038 7.92448 73.6628 8.53646 73.9688 9.24609C74.2747 9.95573 74.4277 10.7305 74.4277 11.5703C74.4277 12.4102 74.2747 13.1849 73.9688 13.8945C73.6628 14.5977 73.2038 15.2096 72.5918 15.7305C71.9798 16.2448 71.2116 16.6484 70.2871 16.9414C69.3691 17.2279 68.2917 17.3711 67.0547 17.3711C65.8177 17.3711 64.737 17.2279 63.8125 16.9414C62.888 16.6484 62.1198 16.2448 61.5078 15.7305C60.8958 15.2096 60.4368 14.5977 60.1309 13.8945C59.8249 13.1849 59.6719 12.4102 59.6719 11.5703ZM67.0547 16.7656C67.3021 16.7656 67.5137 16.6842 67.6895 16.5215C67.8652 16.3587 68.0085 16.0788 68.1191 15.6816C68.2298 15.2845 68.3079 14.7539 68.3535 14.0898C68.4056 13.4193 68.4316 12.5794 68.4316 11.5703C68.4316 10.5547 68.4056 9.71484 68.3535 9.05078C68.3079 8.38021 68.2298 7.84635 68.1191 7.44922C68.0085 7.05208 67.8652 6.77214 67.6895 6.60938C67.5137 6.44661 67.3021 6.36523 67.0547 6.36523C66.8008 6.36523 66.5859 6.44661 66.4102 6.60938C66.2344 6.77214 66.0911 7.05208 65.9805 7.44922C65.8698 7.84635 65.7884 8.38021 65.7363 9.05078C65.6908 9.71484 65.668 10.5547 65.668 11.5703C65.668 12.5794 65.6908 13.4193 65.7363 14.0898C65.7884 14.7539 65.8698 15.2845 65.9805 15.6816C66.0911 16.0788 66.2344 16.3587 66.4102 16.5215C66.5859 16.6842 66.8008 16.7656 67.0547 16.7656ZM76.918 6.83398H75.2188V6.13086H84.3203V6.83398H83.0117L85.6777 13.4453C85.8145 13.0872 85.9642 12.6966 86.127 12.2734C86.2897 11.8438 86.4525 11.4108 86.6152 10.9746C86.7845 10.5384 86.9473 10.1152 87.1035 9.70508C87.2598 9.29492 87.3997 8.92708 87.5234 8.60156C87.6471 8.27604 87.748 8.00586 87.8262 7.79102C87.9043 7.57617 87.9499 7.44922 87.9629 7.41016C87.9824 7.36458 87.9922 7.32552 87.9922 7.29297C87.9922 7.20833 87.9466 7.13672 87.8555 7.07812C87.7708 7.01953 87.6471 6.97396 87.4844 6.94141C87.3281 6.90234 87.1393 6.8763 86.918 6.86328C86.7031 6.84375 86.4655 6.83398 86.2051 6.83398V6.13086H90.7559V6.83398C90.4694 6.83398 90.222 6.84701 90.0137 6.87305C89.8118 6.89258 89.6393 6.92839 89.4961 6.98047C89.3594 7.02604 89.2454 7.08789 89.1543 7.16602C89.0697 7.24414 89.0046 7.33854 88.959 7.44922C88.9069 7.5599 88.8255 7.76172 88.7148 8.05469C88.6042 8.34115 88.4707 8.6862 88.3145 9.08984C88.1582 9.49349 87.9857 9.94271 87.7969 10.4375C87.6146 10.9258 87.4258 11.4303 87.2305 11.9512C87.0352 12.472 86.8398 12.9896 86.6445 13.5039C86.4557 14.0182 86.2767 14.5 86.1074 14.9492C85.9447 15.3984 85.7982 15.8021 85.668 16.1602C85.5378 16.5182 85.4368 16.7982 85.3652 17H81.1758L76.918 6.83398ZM91.4883 11.4629C91.4883 10.5905 91.6673 9.80273 92.0254 9.09961C92.3835 8.39648 92.8783 7.79753 93.5098 7.30273C94.1478 6.80794 94.8997 6.42708 95.7656 6.16016C96.638 5.89323 97.582 5.75977 98.5977 5.75977C99.3789 5.75977 100.085 5.83789 100.717 5.99414C101.355 6.15039 101.918 6.36523 102.406 6.63867C102.901 6.9056 103.324 7.22461 103.676 7.5957C104.034 7.9668 104.327 8.36719 104.555 8.79688C104.789 9.22656 104.962 9.67904 105.072 10.1543C105.183 10.623 105.238 11.0951 105.238 11.5703H97.4062C97.4062 12.5664 97.4486 13.377 97.5332 14.002C97.6243 14.627 97.7643 15.1185 97.9531 15.4766C98.1484 15.8281 98.3958 16.069 98.6953 16.1992C99.0013 16.3294 99.3691 16.3945 99.7988 16.3945C100.346 16.3945 100.86 16.3262 101.342 16.1895C101.824 16.0527 102.253 15.8607 102.631 15.6133C103.015 15.3594 103.334 15.0566 103.588 14.7051C103.842 14.347 104.014 13.9466 104.105 13.5039H105.023C104.958 14.1094 104.773 14.653 104.467 15.1348C104.161 15.61 103.754 16.0137 103.246 16.3457C102.745 16.6777 102.152 16.9316 101.469 17.1074C100.792 17.2832 100.049 17.3711 99.2422 17.3711C97.9727 17.3711 96.8529 17.2409 95.8828 16.9805C94.9193 16.7135 94.112 16.3294 93.4609 15.8281C92.8099 15.3203 92.3184 14.7018 91.9863 13.9727C91.6543 13.237 91.4883 12.4004 91.4883 11.4629ZM100.15 10.584C100.131 9.77018 100.092 9.0931 100.033 8.55273C99.9746 8.01237 99.89 7.57943 99.7793 7.25391C99.6686 6.92839 99.5319 6.70052 99.3691 6.57031C99.2064 6.43359 99.0111 6.36523 98.7832 6.36523C98.5553 6.36523 98.3568 6.43359 98.1875 6.57031C98.0247 6.70052 97.888 6.92839 97.7773 7.25391C97.6667 7.57943 97.582 8.01237 97.5234 8.55273C97.4648 9.0931 97.429 9.77018 97.416 10.584H100.15ZM106.908 16.2969H108.617V6.83398H106.908V6.13086H114.428V7.38086C114.636 7.12695 114.883 6.90234 115.17 6.70703C115.456 6.50521 115.772 6.33594 116.117 6.19922C116.469 6.05599 116.843 5.94857 117.24 5.87695C117.644 5.79883 118.061 5.75977 118.49 5.75977C118.939 5.75977 119.343 5.8151 119.701 5.92578C120.059 6.03646 120.365 6.18945 120.619 6.38477C120.873 6.57357 121.065 6.80143 121.195 7.06836C121.332 7.32878 121.4 7.61198 121.4 7.91797C121.4 8.21094 121.326 8.48763 121.176 8.74805C121.033 9.00846 120.831 9.23633 120.57 9.43164C120.316 9.62695 120.017 9.7832 119.672 9.90039C119.327 10.0111 118.959 10.0664 118.568 10.0664C118.178 10.0664 117.81 10.0111 117.465 9.90039C117.12 9.7832 116.817 9.62695 116.557 9.43164C116.303 9.23633 116.101 9.00846 115.951 8.74805C115.801 8.48763 115.727 8.21094 115.727 7.91797C115.727 7.76823 115.746 7.62174 115.785 7.47852C115.831 7.32878 115.889 7.1888 115.961 7.05859C115.824 7.1237 115.665 7.22461 115.482 7.36133C115.307 7.49154 115.141 7.6543 114.984 7.84961C114.828 8.04492 114.695 8.27279 114.584 8.5332C114.48 8.78711 114.428 9.0638 114.428 9.36328V16.2969H116.322V17H106.908V16.2969ZM122.475 10.0176H131.215V11.2285H122.475V10.0176ZM132.973 11.4629C132.973 10.5905 133.152 9.80273 133.51 9.09961C133.868 8.39648 134.363 7.79753 134.994 7.30273C135.632 6.80794 136.384 6.42708 137.25 6.16016C138.122 5.89323 139.066 5.75977 140.082 5.75977C140.863 5.75977 141.57 5.83789 142.201 5.99414C142.839 6.15039 143.402 6.36523 143.891 6.63867C144.385 6.9056 144.809 7.22461 145.16 7.5957C145.518 7.9668 145.811 8.36719 146.039 8.79688C146.273 9.22656 146.446 9.67904 146.557 10.1543C146.667 10.623 146.723 11.0951 146.723 11.5703H138.891C138.891 12.5664 138.933 13.377 139.018 14.002C139.109 14.627 139.249 15.1185 139.438 15.4766C139.633 15.8281 139.88 16.069 140.18 16.1992C140.486 16.3294 140.854 16.3945 141.283 16.3945C141.83 16.3945 142.344 16.3262 142.826 16.1895C143.308 16.0527 143.738 15.8607 144.115 15.6133C144.499 15.3594 144.818 15.0566 145.072 14.7051C145.326 14.347 145.499 13.9466 145.59 13.5039H146.508C146.443 14.1094 146.257 14.653 145.951 15.1348C145.645 15.61 145.238 16.0137 144.73 16.3457C144.229 16.6777 143.637 16.9316 142.953 17.1074C142.276 17.2832 141.534 17.3711 140.727 17.3711C139.457 17.3711 138.337 17.2409 137.367 16.9805C136.404 16.7135 135.596 16.3294 134.945 15.8281C134.294 15.3203 133.803 14.7018 133.471 13.9727C133.139 13.237 132.973 12.4004 132.973 11.4629ZM141.635 10.584C141.615 9.77018 141.576 9.0931 141.518 8.55273C141.459 8.01237 141.374 7.57943 141.264 7.25391C141.153 6.92839 141.016 6.70052 140.854 6.57031C140.691 6.43359 140.495 6.36523 140.268 6.36523C140.04 6.36523 139.841 6.43359 139.672 6.57031C139.509 6.70052 139.372 6.92839 139.262 7.25391C139.151 7.57943 139.066 8.01237 139.008 8.55273C138.949 9.0931 138.913 9.77018 138.9 10.584H141.635Z" fill="#031036"/>
</svg>
