<svg width="52" height="52" viewBox="0 0 52 52" fill="none" xmlns="http://www.w3.org/2000/svg">
<circle cx="26" cy="26" r="26" fill="#FFB800"/>
<circle cx="26" cy="26" r="25" fill="#031036"/>
<path d="M7 16C7 14.3431 8.34315 13 10 13H15C22.1797 13 28 18.8203 28 26V26C28 33.1797 22.1797 39 15 39H10C8.34315 39 7 37.6569 7 36V16Z" fill="#FFD748"/>
<path d="M13 20.2857C13 19.5756 13.5756 19 14.2857 19H15C18.866 19 22 22.134 22 26V26C22 29.866 18.866 33 15 33H14.2857C13.5756 33 13 32.4244 13 31.7143V20.2857Z" fill="#031036"/>
<path d="M29 25V22C29 17.0294 33.0294 13 38 13V13C42.9706 13 47 17.0294 47 22V23.2857C47 24.2325 46.2325 25 45.2857 25L29 25Z" fill="#FFD748"/>
<path d="M29 22H36V39V39C32.134 39 29 35.866 29 32V22Z" fill="#FFD748"/>
<path d="M36 39V27H46.25C46.6642 27 47 27.3358 47 27.75V28C47 34.0751 42.0751 39 36 39V39Z" fill="#FFD748"/>
<path d="M16 42H39V42C39 43.1046 38.1046 44 37 44H18C16.8954 44 16 43.1046 16 42V42Z" fill="#FFD748"/>
<circle cx="39" cy="20" r="3" fill="#031036"/>
</svg>
